# xmcd CD database file
#
# Track frame offsets:
#	150
#	11898
#	25920
#	39081
#	52505
#	67722
#	81966
#	99465
#	123739
#	149847
#	165913
#	179617
#	202221
#	227685
#	242376
#	251580
#	261817
#	270681
#	294749
#
# Disc length: 4152 seconds
#
# Revision: 0
# Processed by: cddbd v1.5.2PL0 Copyright (c) Steve Scherf et al.
# Submitted via: CDex 1.51
#
DISCID=09103613
DTITLE=bill Coleman - The Complete Philips Recordings cd 1
DYEAR=1951
DGENRE=Jazz
TTITLE0=jumpin'at the pleyel
TTITLE1=si jolie
TTITLE2=the blues jumped up and got me
TTITLE3=I'm coming virginia
TTITLE4=come on a my house
TTITLE5=tenderly
TTITLE6=knucklehead
TTITLE7=baby won't you please come home
TTITLE8=one o'clock jump
TTITLE9=perdido
TTITLE10=when the saints go marching in
TTITLE11=ghost of a chance
TTITLE12=basin' street blues
TTITLE13=lover man
TTITLE14=summertime
TTITLE15=jumpin' with symphony sid
TTITLE16=trombone blues
TTITLE17=st james infirmary
TTITLE18=sheik of araby
EXTD=YEAR: 1951
EXTT0=
EXTT1=
EXTT2=
EXTT3=
EXTT4=
EXTT5=
EXTT6=
EXTT7=
EXTT8=
EXTT9=
EXTT10=
EXTT11=
EXTT12=
EXTT13=
EXTT14=
EXTT15=
EXTT16=
EXTT17=
EXTT18=
PLAYORDER=
